<?xml version="1.0" encoding="UTF-8" standalone="no"?>
<svg
   xmlns:dc="http://purl.org/dc/elements/1.1/"
   xmlns:cc="http://creativecommons.org/ns#"
   xmlns:rdf="http://www.w3.org/1999/02/22-rdf-syntax-ns#"
   xmlns:svg="http://www.w3.org/2000/svg"
   xmlns="http://www.w3.org/2000/svg"
   viewBox="0 0 4000 4000"
   height="4000"
   width="4000"
   xml:space="preserve"
   id="svg2"
   version="1.1"><metadata
     id="metadata8"><rdf:RDF><cc:Work
         rdf:about=""><dc:format>image/svg+xml</dc:format><dc:type
           rdf:resource="http://purl.org/dc/dcmitype/StillImage" /></cc:Work></rdf:RDF></metadata><defs
     id="defs6" /><g
     transform="matrix(1.3333333,0,0,-1.3333333,0,4000)"
     id="g10"><g
       transform="scale(0.1)"
       id="g12"><g
         transform="scale(1.49614)"
         id="g14"><path
           id="path16"
           style="fill:#181715;fill-opacity:1;fill-rule:nonzero;stroke:none"
           d="m 15528.9,16039.7 c 0,-143.7 -116.4,-260.2 -260,-260.2 -143.7,0 -260.2,116.5 -260.2,260.2 0,143.8 116.5,260.3 260.2,260.3 143.6,0 260,-116.5 260,-260.3 v 0" /></g><g
         transform="scale(1.46683)"
         id="g18"><path
           id="path20"
           style="fill:#181715;fill-opacity:1;fill-rule:nonzero;stroke:none"
           d="m 15160,16034.5 c 0,-146.6 -118.8,-265.4 -265.3,-265.4 -146.5,0 -265.3,118.8 -265.3,265.4 0,146.7 118.8,265.5 265.3,265.5 146.5,0 265.3,-118.8 265.3,-265.5 v 0" /></g><g
         transform="scale(1.43785)"
         id="g22"><path
           id="path24"
           style="fill:#181715;fill-opacity:1;fill-rule:nonzero;stroke:none"
           d="m 14769.1,16029.2 c 0,-149.6 -121.2,-270.8 -270.6,-270.8 -149.5,0 -270.7,121.2 -270.7,270.8 0,149.6 121.2,270.8 270.7,270.8 149.4,0 270.6,-121.2 270.6,-270.8 v 0" /></g><g
         transform="scale(1.53153)"
         id="g26"><path
           id="path28"
           style="fill:#181715;fill-opacity:1;fill-rule:nonzero;stroke:none"
           d="m 10543.9,8199.53 c 15.2,-54.26 -186.4,-339.01 -557.4,-483.05 -248.44,-92.26 -487.29,-208.68 -713.14,-347.5 -418.41,-267.77 -487.88,-638.97 -562.45,-1030.47 -98.07,-555.33 -315.37,-1082.71 -636.88,-1545.78 -188.05,-289.84 -555.65,-411.88 -696.23,-22.07 -128.76,355.99 169.37,449.16 0,957.67 -359.19,1079.65 -2183.58,1215.26 -1797.35,2277.99 479.4,1318.62 1797.35,718.63 2032.8,1437.32 235.45,718.66 599.66,847.46 847,599.96 247.27,-247.43 127.06,-949.15 718.23,-1677.97 269.34,-337.3 779.23,-623.75 1365.42,-166.1 z m 5163.2,7361.07 -2522.4,-1140.7 -240.5,-718.6 -3703.03,-3533.9 c -491.28,33.9 -972.37,827 -184.66,1483 574.27,476.3 -846.99,1089.9 -1758.37,-905.1 C 6386.79,8750.41 6053.07,9845.33 4330.28,8619.89 2607.5,7394.45 4054.17,5582.53 4743.62,4891 c 290.09,-263.99 594.95,-511.26 913.06,-740.7 846.99,-540.64 1968.39,-862.67 2813.69,327.19 968.97,1364.39 476.06,2084.72 1104.51,2486.41 628.42,401.75 1248.42,391.57 1524.52,966.16 276.2,574.59 -113.4,935.6 -426.9,723.72 -584.3,-399.99 -1038.33,-49.17 -1172.18,198.3 l 4043.58,4250.92 718.2,239 c 723.3,1511.8 1380.6,1101.7 1709.3,1561 328.6,459.3 -264.3,657.6 -264.3,657.6 v 0" /></g><path
         id="path30"
         style="fill:#181715;fill-opacity:1;fill-rule:nonzero;stroke:none"
         d="m 13381.9,12014.6 c 114.5,-114.5 114.5,-300.3 0,-414.8 l -319.2,-319.4 c -114.5,-114.6 -300.2,-114.6 -414.6,0 l -1420,1420.7 c -114.4,114.6 -114.4,300.3 0,414.8 l 319.3,319.4 c 114.4,114.6 300.1,114.6 414.6,0 l 1419.9,-1420.7" /><path
         id="path32"
         style="fill:#181715;fill-opacity:1;fill-rule:nonzero;stroke:none"
         d="m 12097.5,10729.7 c 114.5,-114.6 114.5,-300.3 0,-414.9 l -319.2,-319.3 c -114.4,-114.6 -300.1,-114.6 -414.6,0 l -1419.87,1420.7 c -114.48,114.5 -114.48,300.2 0,414.8 l 319.17,319.4 c 114.5,114.5 300.1,114.5 414.6,0 l 1419.9,-1420.7" /></g></g></svg>